<?xml version="1.0" encoding="utf-8"?>
<!-- Generator: Adobe Illustrator 18.1.1, SVG Export Plug-In . SVG Version: 6.00 Build 0)  -->
<svg version="1.1" id="Icons" xmlns="http://www.w3.org/2000/svg" xmlns:xlink="http://www.w3.org/1999/xlink" x="0px" y="0px"
	 viewBox="-255 347 100 100" enable-background="new -255 347 100 100" xml:space="preserve">
<path id="Facebook" fill="#FFFFFF" d="M-216.9,369.4c0,2.3,0,12.4,0,12.4h-9.1V397h9.1v45h18.6v-45h12.5c0,0,1.2-7.3,1.7-15.2
	c-1.6,0-14.2,0-14.2,0s0-8.8,0-10.4c0-1.5,2-3.6,4-3.6c2,0,6.2,0,10.2,0c0-2.1,0-9.2,0-15.8c-5.2,0-11.2,0-13.8,0
	C-217.4,352-216.9,367.2-216.9,369.4z"/>
</svg>
