<?xml version="1.0" encoding="utf-8"?>
<!-- Generator: Adobe Illustrator 18.1.1, SVG Export Plug-In . SVG Version: 6.00 Build 0)  -->
<svg version="1.1" id="Icons" xmlns="http://www.w3.org/2000/svg" xmlns:xlink="http://www.w3.org/1999/xlink" x="0px" y="0px"
	 viewBox="-255 347 100 100" enable-background="new -255 347 100 100" xml:space="preserve">
<path id="Vimeo" fill="#FFFFFF" d="M-173.2,358c-12.5-0.4-21,6.6-25.4,21.1c2.3-0.9,4.5-1.4,6.7-1.4c4.6,0,6.6,2.6,6,7.7
	c-0.3,3.1-2.3,7.6-6,13.6c-3.8,5.9-6.6,8.9-8.5,8.9c-2.4,0-4.6-4.6-6.7-13.8c-0.7-2.7-1.9-9.6-3.6-20.7
	c-1.6-10.3-5.9-15.1-12.9-14.4c-3,0.3-7.4,3-13.3,8.1c-4.3,3.9-8.7,7.8-13.1,11.8l4.2,5.5c4-2.8,6.4-4.2,7.1-4.2
	c3.1,0,6,4.9,8.7,14.6c2.4,8.9,4.8,17.8,7.3,26.7c3.6,9.7,8.1,14.6,13.3,14.6c8.5,0,18.8-8,31.1-23.9c11.8-15.3,17.9-27.3,18.3-36.1
	C-159.5,364.3-163.9,358.3-173.2,358z"/>
</svg>
