<?xml version="1.0" encoding="UTF-8"?>
<svg id="Layer_1" data-name="Layer 1" xmlns="http://www.w3.org/2000/svg" width="550.23" height="326.03" viewBox="0 0 550.23 326.03">
  <rect x="208.23" y="112.44" width="3.94" height="11.32" fill="#231f20"/>
  <rect x="76.73" y="136.29" width="3.94" height="11.32" fill="#231f20"/>
  <rect x="241.1" y="106.48" width="3.94" height="11.32" fill="#231f20"/>
  <path d="m550.23,81.08l-.7-3.88-12.58,2.28v7.57c-.52-.59-1.07-1.16-1.68-1.67-3.55-2.96-8.21-4.1-13.14-3.21-9.96,1.81-18.06,11.63-18.06,21.9l-.02,45.28c0,8.46-6.66,16.54-14.83,18.02l-5.48.99c-2.31.42-4.46-.09-6.07-1.43-1.65-1.38-2.56-3.5-2.56-5.96l.02-50.94c0-5.18-1.99-9.7-5.61-12.73-3.55-2.96-8.21-4.11-13.14-3.21-5.71,1.04-10.8,4.72-14.12,9.6v-4.68s-3.94,0-3.94,0l-.03,62.25h0c0,8.46-6.66,16.54-14.83,18.02l-14.12,2.56v-14.6s0-.01,0-.02h0l.03-62.25h-3.94s-.03,62.27-.03,62.27c-.01,8.45-6.66,16.53-14.83,18.01-3.76.68-7.28-.16-9.91-2.36-2.71-2.26-4.2-5.71-4.2-9.7l.03-62.26h-3.94s-.03,62.25-.03,62.25c0,8.46-6.65,16.54-14.83,18.02l-5.48.99c-2.31.42-4.46-.09-6.07-1.43-1.65-1.38-2.56-3.5-2.56-5.96v-5.65s0,0,0,0h0l.07-141.49h-3.94s-.07,141.49-.07,141.49c0,8.45-6.66,16.54-14.83,18.02l-5.48.99c-2.3.42-4.46-.09-6.07-1.43-1.65-1.38-2.56-3.5-2.56-5.96l.02-50.94c0-5.18-1.99-9.7-5.61-12.73-3.55-2.96-8.22-4.1-13.14-3.21-5.71,1.04-10.81,4.72-14.12,9.6l.04-83.92h-3.94s-.05,96.2-.05,96.2c0,0,0,0,0,0h0l-.03,60.61-20.3,3.68c-2.31.42-4.46-.09-6.07-1.43-1.65-1.38-2.56-3.5-2.56-5.96v-5.65s0,0,0,0h0l.03-62.26h-3.94s-.03,62.25-.03,62.25h0c0,8.46-6.66,16.54-14.83,18.02-3.75.68-7.27-.16-9.91-2.36-2.71-2.26-4.2-5.71-4.2-9.7l.03-66.58-32.88,28.6.04-78.92,31.26-5.67-.7-3.88-30.55,5.54.03-59.9c0-8.46,6.66-16.54,14.83-18.02,3.75-.68,7.27.16,9.91,2.36,2.71,2.26,4.2,5.71,4.2,9.7h3.94c0-5.18-1.99-9.7-5.61-12.72-3.55-2.96-8.21-4.1-13.14-3.21-9.96,1.81-18.06,11.63-18.06,21.9l-.03,60.61-31.26,5.67.7,3.88,30.55-5.54-.06,137.48-20.3,3.68c-2.31.42-4.46-.09-6.07-1.43-1.65-1.38-2.56-3.5-2.56-5.96l.02-50.94c0-5.18-1.99-9.7-5.61-12.73-3.55-2.96-8.22-4.1-13.14-3.21-5.71,1.04-10.81,4.72-14.12,9.6v-4.68s-3.94,0-3.94,0l-.04,77.59-20.3,3.68c-2.31.42-4.46-.09-6.07-1.43-1.65-1.38-2.56-3.5-2.56-5.96l.03-67.91h-3.94s-.02,39.62-.02,39.62h0c0,20.94-16.5,40.96-36.75,44.63-9.54,1.73-18.52-.43-25.28-6.07-6.93-5.79-10.74-14.54-10.74-24.65v-22.64c.02-20.94,16.51-40.96,36.76-44.63l-.7-3.88c-9.54,1.73-18.52-.43-25.28-6.07-6.93-5.79-10.74-14.54-10.74-24.65,0-20.94,16.5-40.96,36.75-44.63,9.54-1.73,18.52.43,25.28,6.07,6.93,5.79,10.74,14.54,10.74,24.65h3.94c0-11.3-4.31-21.13-12.15-27.68-7.67-6.41-17.79-8.87-28.5-6.92C18,71.73.06,93.49.05,116.24c0,11.3,4.31,21.13,12.15,27.68,4.53,3.79,9.92,6.2,15.79,7.13C11.79,159.26.02,177.04.01,195.47v22.64c-.02,11.3,4.3,21.13,12.14,27.68,5.96,4.98,13.4,7.57,21.44,7.57,2.31,0,4.67-.21,7.07-.65,15.85-2.87,29.57-14.93,36.04-29.94v9.73c0,3.65,1.41,6.84,3.97,8.99,1.96,1.64,4.4,2.49,7.02,2.49.75,0,1.51-.07,2.28-.21l23.53-4.27.03-63.9h0c0-8.46,6.66-16.54,14.83-18.02,3.75-.68,7.27.16,9.91,2.36,2.71,2.26,4.2,5.71,4.2,9.7l-.02,50.94c0,3.65,1.41,6.85,3.98,8.99,1.96,1.64,4.4,2.49,7.02,2.49.75,0,1.51-.07,2.28-.21l19.59-3.55-.02,48.58c0,20.94-16.5,40.96-36.75,44.63-9.54,1.73-18.52-.43-25.28-6.07-6.93-5.79-10.74-14.54-10.74-24.65h-3.94c0,11.3,4.31,21.12,12.15,27.67,5.96,4.98,13.4,7.57,21.44,7.57,2.31,0,4.67-.21,7.06-.65,22.04-4,39.98-25.76,39.99-48.51l.05-106.63,28.94-25.17-.03,57.93c0,5.18,1.99,9.7,5.61,12.73,2.76,2.31,6.2,3.51,9.91,3.51,1.06,0,2.14-.1,3.23-.3,6.33-1.15,11.9-5.54,15.13-11.23.67,1.54,1.67,2.89,2.97,3.98,1.96,1.64,4.4,2.49,7.02,2.49.75,0,1.51-.07,2.28-.21l23.53-4.27.03-63.9c0-8.45,6.66-16.54,14.83-18.02,3.75-.68,7.27.16,9.91,2.36,2.71,2.26,4.2,5.71,4.2,9.7l-.02,50.94c0,3.65,1.41,6.84,3.98,8.99,1.96,1.64,4.4,2.49,7.02,2.49.75,0,1.51-.07,2.28-.21l5.48-.99c6.33-1.15,11.9-5.54,15.13-11.23.67,1.54,1.67,2.89,2.97,3.98,1.96,1.64,4.4,2.49,7.02,2.49.75,0,1.51-.07,2.28-.21l5.48-.99c7.13-1.29,13.29-6.7,16.23-13.44.9,1.62,2.07,3.07,3.51,4.27,2.76,2.31,6.2,3.51,9.9,3.51,1.06,0,2.14-.1,3.23-.3,5.71-1.04,10.8-4.72,14.12-9.6v7.04s18.76-3.4,18.76-3.4c5.71-1.04,10.8-4.72,14.12-9.6v4.68s3.94,0,3.94,0l.03-62.26h0c0-8.46,6.65-16.54,14.83-18.02,3.75-.68,7.27.16,9.91,2.36,2.71,2.26,4.2,5.71,4.2,9.7l-.02,50.94c0,3.65,1.41,6.84,3.98,8.99,1.96,1.64,4.4,2.49,7.02,2.49.75,0,1.51-.07,2.28-.21l5.48-.99c7.13-1.29,13.29-6.7,16.22-13.44.9,1.62,2.07,3.07,3.51,4.27,2.76,2.31,6.2,3.51,9.91,3.51,1.06,0,2.14-.1,3.23-.3,5.71-1.04,10.81-4.72,14.12-9.6l-.03,55.62c0,8.46-6.66,16.54-14.83,18.02-3.75.68-7.27-.16-9.91-2.36-2.71-2.26-4.2-5.71-4.2-9.7h-3.94c0,5.18,1.99,9.7,5.61,12.72,2.76,2.3,6.2,3.51,9.9,3.51,1.06,0,2.14-.1,3.23-.3,9.96-1.8,18.06-11.63,18.06-21.9l.04-88.57v-24.62s.01,0,.01,0v-15.33s9.35-1.69,9.35-1.69Zm-28.13,80.33c-3.75.68-7.28-.16-9.91-2.36-2.71-2.26-4.2-5.71-4.2-9.7l.02-45.28c0-8.46,6.65-16.54,14.83-18.02.85-.15,1.69-.23,2.51-.23,2.79,0,5.36.89,7.4,2.59,2.71,2.26,4.2,5.71,4.2,9.7l-.02,45.28c0,8.46-6.65,16.54-14.83,18.02Z" fill="#231f20"/>
</svg>