<?xml version="1.0" encoding="UTF-8"?>
<svg id="Layer_1" data-name="Layer 1" xmlns="http://www.w3.org/2000/svg" width="14mm" height="14mm" viewBox="0 0 39.69 39.69">
  <rect x="-174.19" y="-77.87" width="288" height="288" stroke-width="0"/>
  <g>
    <path d="M68.54,80.53h-5.42c-22.17,0-32.26-15.6-32.26-30.09V14.64C30.85-7.91,14.96-18.19.2-18.19c-13.66,0-28.27,8.8-30.38,27.97-2.12-19.17-16.73-27.97-30.39-27.97-14.76,0-30.66,10.27-30.66,32.83v35.8c0,14.49-10.1,30.09-32.26,30.09h-5.42c-.16,0-.28.13-.28.28s.13.28.28.28h5.42c22.55,0,32.83-15.89,32.83-30.66v-30.4c2.92,2.47,7.13,3.72,11.36,3.72s8.34-1.22,11.26-3.64v21.56h9.13v-.56h-8.57v-21.47h0l-.24-.21c-5.77-5.13-17.03-5.18-22.93-.17v-4.63c0-22.17,15.6-32.26,30.09-32.26,7.89,0,15.23,2.86,20.69,8.06,6.15,5.86,9.41,14.23,9.41,24.21v4.6c-5.91-4.98-17.14-4.92-22.9.2l-.24.21.24.21c2.92,2.6,7.25,3.9,11.58,3.9s8.41-1.24,11.32-3.69v30.38s.02.03.02.04c-.02,14.48-10.12,30.05-32.26,30.05h-5.42c-.16,0-.28.13-.28.28s.13.28.28.28h5.42c22.55,0,32.83-15.89,32.83-30.66V14.64C-29.9-7.53-14.3-17.62.2-17.62S30.29-7.53,30.29,14.64v4.58c-5.92-4.96-17.12-4.89-22.87.22l-.24.21.24.21c2.92,2.6,7.25,3.9,11.58,3.9s8.38-1.23,11.3-3.67v30.36c0,14.77,10.27,30.66,32.83,30.66h5.42c.16,0,.28-.13.28-.28s-.13-.28-.28-.28ZM-78.82,16.18c1.97.22,3.5,1.68,3.5,3.47s-1.53,3.25-3.49,3.47c-.34,0-.67,0-1,0-1.96-.22-3.49-1.68-3.49-3.47s1.53-3.26,3.5-3.47c.33,0,.65,0,.98,0ZM-76.68,22.97c1.16-.74,1.92-1.95,1.92-3.32s-.76-2.58-1.92-3.32c3.16.39,6.16,1.49,8.33,3.32-2.18,1.83-5.17,2.92-8.33,3.32ZM-81.94,16.33c-1.16.74-1.92,1.95-1.92,3.32s.76,2.58,1.92,3.32c-3.16-.39-6.15-1.49-8.33-3.32,2.18-1.83,5.17-2.92,8.33-3.32ZM-42.29,23.12c-1.97-.21-3.51-1.68-3.51-3.47s1.53-3.26,3.5-3.47c.33,0,.66,0,.98,0,1.97.22,3.5,1.68,3.5,3.47s-1.54,3.26-3.51,3.47c-.32,0-.65,0-.97,0ZM-44.43,16.33c-1.16.74-1.92,1.95-1.92,3.32s.76,2.58,1.92,3.32c-3.16-.39-6.16-1.49-8.33-3.32,2.18-1.83,5.17-2.92,8.33-3.32ZM-39.17,22.96c1.16-.74,1.92-1.95,1.92-3.32s-.76-2.58-1.92-3.32c3.16.39,6.16,1.49,8.33,3.32-2.18,1.83-5.17,2.92-8.33,3.32ZM18.51,23.12c-1.97-.22-3.5-1.68-3.5-3.47s1.53-3.26,3.5-3.47c.33,0,.65,0,.98,0,1.97.22,3.5,1.68,3.5,3.47s-1.53,3.26-3.5,3.47c-.33,0-.65,0-.98,0ZM16.37,16.33c-1.16.74-1.92,1.95-1.92,3.32s.76,2.58,1.92,3.32c-3.16-.39-6.16-1.49-8.33-3.32,2.18-1.83,5.17-2.92,8.33-3.32ZM21.62,22.97c1.16-.74,1.92-1.95,1.92-3.32s-.76-2.58-1.92-3.32c3.16.39,6.16,1.49,8.33,3.32-2.18,1.83-5.17,2.92-8.33,3.32Z" fill="#fff" stroke-width="0"/>
    <polygon points="-7.55 19.65 -7.55 41.68 1.58 41.68 1.58 41.12 -6.99 41.12 -6.99 19.65 -7.55 19.65" fill="#fff" stroke-width="0"/>
  </g>
</svg>