<?xml version="1.0" encoding="UTF-8"?>
<svg id="Layer_1" data-name="Layer 1" xmlns="http://www.w3.org/2000/svg" width="14mm" height="14mm" viewBox="0 0 39.69 39.69">
  <rect x="-186.84" y="-124.16" width="288" height="288" stroke-width="0"/>
  <path d="M82.1,95.51h-6.89c-28.21,0-41.05-19.85-41.05-38.3V11.74c0-28.59-20.14-41.61-38.86-41.61-17.47,0-36.17,11.35-38.59,36.11-2.42-24.76-21.12-36.11-38.59-36.11-18.72,0-38.86,13.02-38.86,41.61v45.47c0,18.45-12.85,38.3-41.05,38.3h-6.89c-.16,0-.28.13-.28.28s.13.28.28.28h6.89c28.59,0,41.61-20.14,41.61-38.86V18.44c3.7,3.2,9.09,4.81,14.5,4.81s10.68-1.58,14.37-4.71v27.47h11.52v-.56h-10.96v-27.34h-.04l-.24-.21c-7.35-6.53-21.71-6.57-29.15-.12v-6.03c0-28.21,19.85-41.05,38.3-41.05,10.03,0,19.38,3.64,26.33,10.26,7.83,7.46,11.97,18.11,11.97,30.8v6c-7.45-6.42-21.78-6.38-29.12.15l-.24.21.24.21c3.7,3.29,9.18,4.93,14.65,4.93s10.77-1.6,14.47-4.78v38.75s.02.03.02.05c-.03,18.43-12.87,38.24-41.05,38.24h-6.89c-.16,0-.28.13-.28.28s.13.28.28.28h6.89c28.59,0,41.61-20.14,41.61-38.86V11.74c0-28.21,19.85-41.05,38.3-41.05S33.6-16.46,33.6,11.74v5.97c-7.46-6.38-21.75-6.33-29.08.18l-.24.21.24.21c3.7,3.29,9.18,4.93,14.65,4.93s10.73-1.59,14.42-4.75v38.71c0,18.72,13.02,38.86,41.61,38.86h6.89c.16,0,.28-.13.28-.28s-.13-.28-.28-.28ZM-105.01,13.62c2.52.29,4.48,2.18,4.48,4.48s-1.96,4.19-4.48,4.48c-.45.01-.89.01-1.33,0-2.52-.29-4.48-2.18-4.48-4.48s1.96-4.19,4.48-4.48c.45-.01.89-.01,1.33,0ZM-102.66,22.43c1.61-.9,2.68-2.5,2.68-4.32s-1.08-3.42-2.68-4.32c4.19.47,8.16,1.9,11.02,4.32-2.85,2.42-6.83,3.85-11.02,4.32ZM-108.7,13.79c-1.61.9-2.68,2.5-2.68,4.32s1.08,3.42,2.68,4.32c-4.19-.47-8.16-1.9-11.02-4.32,2.85-2.42,6.83-3.85,11.02-4.32ZM-58.72,22.58c-2.52-.29-4.48-2.18-4.48-4.48s1.96-4.19,4.48-4.48c.45-.01.89-.01,1.33,0,2.52.29,4.48,2.18,4.48,4.48s-1.96,4.19-4.48,4.48c-.45.01-.89.01-1.33,0ZM-61.07,13.78c-1.61.9-2.68,2.5-2.68,4.32s1.08,3.42,2.68,4.32c-4.19-.47-8.16-1.9-11.02-4.32,2.85-2.42,6.83-3.85,11.02-4.32ZM-55.03,22.42c1.61-.9,2.68-2.5,2.68-4.32s-1.08-3.42-2.68-4.32c4.19.47,8.16,1.9,11.02,4.32-2.85,2.42-6.83,3.85-11.02,4.32ZM18.51,22.59c-2.52-.29-4.48-2.18-4.48-4.48s1.96-4.19,4.48-4.48c.45-.01.89-.01,1.33,0,2.52.29,4.48,2.18,4.48,4.48s-1.96,4.19-4.48,4.48c-.45.01-.89.01-1.33,0ZM16.16,13.79c-1.61.9-2.68,2.5-2.68,4.32s1.08,3.42,2.68,4.32c-4.19-.47-8.16-1.9-11.02-4.32,2.85-2.42,6.83-3.85,11.02-4.32ZM22.2,22.43c1.61-.9,2.68-2.5,2.68-4.32s-1.08-3.42-2.68-4.32c4.19.47,8.16,1.9,11.02,4.32-2.85,2.42-6.83,3.85-11.02,4.32Z" fill="#fff" stroke-width="0"/>
</svg>