<?xml version="1.0" encoding="UTF-8"?>
<svg id="Layer_1" data-name="Layer 1" xmlns="http://www.w3.org/2000/svg" width="14mm" height="14mm" viewBox="0 0 39.69 39.69">
  <rect x="-150.24" y="-21.29" width="288" height="288" stroke-width="0"/>
  <g>
    <path d="M93.43,1.18h22.15v-.56h-22.15C56.64.62,26.7,30.55,26.7,67.34v17.85c-7.97-6.84-19.93-10.75-32.94-10.75s-24.97,3.92-32.94,10.75v-17.85C-39.18,30.55-69.11.62-105.9.62h-22.15v.56h22.15c36.48,0,66.16,29.68,66.16,66.16v17.85c-7.97-6.84-19.93-10.75-32.94-10.75s-25.44,4.06-33.41,11.14l-.24.21.24.21c7.97,7.08,20.14,11.14,33.41,11.14s24.97-3.92,32.94-10.75v58.18h-22.15v18.46h-8.29c-3.13,0-5.77,1.03-7.62,2.97-1.64,1.73-2.55,4.05-2.55,6.54,0,4.58,3.18,9.51,10.17,9.51h8.29v7.1c0,.22-.26,21.87-21.87,21.87h-22.43v33.5h.56v-32.94h21.87c22.17,0,22.43-22.2,22.43-22.43v-44.01h22.15v-58.74c7.97,6.83,19.92,10.75,32.93,10.75,0,0,0,0,0,0s0,0,0,0c13.01,0,24.96-3.92,32.93-10.75v58.74h22.15v44.01c0,.22.26,22.43,22.43,22.43h21.87v32.94h.56v-33.5h-22.43c-21.61,0-21.87-21.65-21.87-21.87v-7.1h8.29c3.13,0,5.77-1.03,7.62-2.97,1.64-1.73,2.55-4.05,2.55-6.54,0-4.58-3.18-9.51-10.17-9.51h-8.29v-18.46h-22.15v-58.18c7.97,6.84,19.93,10.75,32.94,10.75s25.44-4.06,33.41-11.14l.24-.21-.24-.21c-7.97-7.08-20.15-11.14-33.41-11.14s-24.97,3.92-32.94,10.75v-17.85C27.27,30.86,56.95,1.18,93.43,1.18ZM-70.17,163.6h8.29v8.67h-17.88c.13-4.23,3.14-8.67,9.59-8.67ZM-70.17,181.49c-6.46,0-9.47-4.44-9.59-8.67h17.88v8.67h-8.29ZM57.7,181.49h-8.29v-8.67h17.88c-.13,4.23-3.14,8.67-9.59,8.67ZM57.7,163.6c6.46,0,9.47,4.44,9.59,8.67h-17.88v-8.67h8.29ZM51.55,80.78c.04.59.08,1.19.08,1.79,0,6.71-2.67,12.18-5.95,12.18s-5.95-5.46-5.95-12.18c0-.21,0-.42.01-.63,3.62-.56,7.68-.94,11.81-1.17ZM42.9,94.08c-6-1.84-11.31-4.64-15.48-8.27,2.1-1.67,6.41-2.92,11.75-3.78,0,.18-.01.36-.01.54,0,5.08,1.53,9.47,3.74,11.51ZM23.96,83.75c-12.48-5.05-47.9-5.05-60.39,0,7.78-5.59,18.55-8.75,30.19-8.75s22.41,3.16,30.19,8.75ZM-.29,84.41c0,6.71-2.66,12.17-5.94,12.18,0,0,0,0,0,0s0,0,0,0c-3.28,0-5.94-5.47-5.94-12.18,0-1.29.11-2.56.31-3.77,1.9-.07,3.79-.1,5.64-.1s3.75.03,5.64.1c.2,1.22.31,2.48.31,3.77ZM-64.02,80.78c4.13.22,8.19.61,11.81,1.17,0,.21.01.42.01.63,0,6.71-2.67,12.18-5.95,12.18s-5.95-5.46-5.95-12.18c0-.61.03-1.2.08-1.79ZM-51.64,82.57c0-.18,0-.36,0-.54,5.34.86,9.65,2.11,11.75,3.78-4.17,3.63-9.48,6.43-15.48,8.27,2.21-2.04,3.74-6.43,3.74-11.51ZM-72.68,75.01c11.64,0,22.41,3.16,30.19,8.75-12.48-5.05-47.9-5.05-60.39,0,7.78-5.59,18.55-8.75,30.19-8.75ZM-105.47,85.81c4.56-3.63,19.65-5.26,32.79-5.26,2.66,0,5.39.07,8.1.2-.04.6-.08,1.21-.08,1.82,0,6.29,2.34,11.51,5.41,12.54-4.25.97-8.77,1.48-13.43,1.48-12.99,0-24.92-3.93-32.79-10.78ZM-39.02,85.81c3.86-3.07,15.22-4.71,26.58-5.15-.19,1.21-.3,2.47-.3,3.75,0,5.68,1.91,10.5,4.54,12.14-12.22-.38-23.35-4.24-30.82-10.75ZM.27,84.41c0-1.28-.11-2.54-.3-3.75,11.36.43,22.72,2.08,26.58,5.15-7.47,6.51-18.6,10.37-30.82,10.75,2.63-1.64,4.54-6.46,4.54-12.14ZM46.77,95.11c3.07-1.03,5.41-6.25,5.41-12.54,0-.61-.03-1.22-.08-1.82,2.71-.14,5.45-.2,8.1-.2,13.14,0,28.22,1.63,32.79,5.26-7.87,6.86-19.8,10.78-32.79,10.78-4.66,0-9.18-.51-13.43-1.48ZM90.4,83.75c-12.48-5.05-47.9-5.05-60.39,0,7.78-5.59,18.55-8.75,30.19-8.75s22.41,3.16,30.19,8.75Z" fill="#fff" stroke-width="0"/>
    <path d="M19.42,37.44c0-.16-.13-.28-.28-.28H7.63v-19.12h6.46c.16,0,.28-.13.28-.28s-.13-.28-.28-.28h-6.46V2.74h11.51c.16,0,.28-.13.28-.28s-.13-.28-.28-.28H7.06v35.55h12.08c.16,0,.28-.13.28-.28Z" fill="#fff" stroke-width="0"/>
    <path d="M-6.31,14.55v22.9c0,.16.13.28.28.28s.28-.13.28-.28V14.55L.12,2.58c.07-.14.01-.31-.13-.38-.14-.07-.31-.01-.38.13l-5.65,11.51L-11.68,2.33c-.07-.14-.24-.2-.38-.13-.14.07-.2.24-.13.38l5.87,11.97Z" fill="#fff" stroke-width="0"/>
  </g>
</svg>