<?xml version="1.0" encoding="UTF-8"?>
<svg id="Layer_1" data-name="Layer 1" xmlns="http://www.w3.org/2000/svg" width="14mm" height="14mm" viewBox="0 0 39.69 39.69">
  <rect x="-22.23" y="-157.55" width="288" height="288" stroke-width="0"/>
  <g>
    <path d="M20.42,25.81c-.16,0-.28.13-.28.28s.13.28.28.28h.04c.16,0,.26-.13.26-.28s-.14-.28-.3-.28Z" fill="#fff" stroke-width="0"/>
    <path d="M10.97,26.09c0-.16-.13-.28-.28-.28h-.07c-.16,0-.28.13-.28.28s.13.28.28.28h.07c.16,0,.28-.13.28-.28Z" fill="#fff" stroke-width="0"/>
    <path d="M14.61,26.38c.16,0,.28-.13.28-.28s-.13-.28-.28-.28h-.07c-.16,0-.28.13-.28.28s.13.28.28.28h.07Z" fill="#fff" stroke-width="0"/>
    <path d="M9.01,26.09c0-.16-.13-.28-.28-.28h-.07c-.16,0-.28.13-.28.28s.13.28.28.28h.07c.16,0,.28-.13.28-.28Z" fill="#fff" stroke-width="0"/>
    <path d="M12.93,26.09c0-.16-.13-.28-.28-.28h-.07c-.16,0-.28.13-.28.28s.13.28.28.28h.07c.16,0,.28-.13.28-.28Z" fill="#fff" stroke-width="0"/>
    <path d="M7.05,26.09c0-.16-.13-.28-.28-.28h-.07c-.16,0-.28.13-.28.28s.13.28.28.28h.07c.16,0,.28-.13.28-.28Z" fill="#fff" stroke-width="0"/>
    <path d="M.89,25.81h-.07c-.16,0-.28.13-.28.28s.13.28.28.28h.07c.16,0,.28-.13.28-.28s-.13-.28-.28-.28Z" fill="#fff" stroke-width="0"/>
    <path d="M2.85,25.81h-.07c-.16,0-.28.13-.28.28s.13.28.28.28h.07c.16,0,.28-.13.28-.28s-.13-.28-.28-.28Z" fill="#fff" stroke-width="0"/>
    <path d="M4.81,25.81h-.07c-.16,0-.28.13-.28.28s.13.28.28.28h.07c.16,0,.28-.13.28-.28s-.13-.28-.28-.28Z" fill="#fff" stroke-width="0"/>
    <path d="M16.57,26.38c.16,0,.28-.13.28-.28s-.13-.28-.28-.28h-.07c-.16,0-.28.13-.28.28s.13.28.28.28h.07Z" fill="#fff" stroke-width="0"/>
    <path d="M18.53,26.38c.16,0,.28-.13.28-.28s-.13-.28-.28-.28h-.07c-.16,0-.28.13-.28.28s.13.28.28.28h.07Z" fill="#fff" stroke-width="0"/>
    <path d="M20.37,12.51s.05.01.08.01c.12,0,.22-.08.26-.2.04-.15-.06-.31-.21-.35-.16-.04-.31.04-.35.19-.04.15.04.31.19.35h.03Z" fill="#fff" stroke-width="0"/>
    <path d="M9.25,8.65l-.07-.02c-.15-.05-.31.04-.35.19-.04.15.04.3.19.35l.07.02s.05.01.08.01c.12,0,.23-.08.27-.2.04-.15-.04-.3-.19-.35Z" fill="#fff" stroke-width="0"/>
    <path d="M18.68,11.42l-.07-.02c-.15-.04-.3.04-.35.19-.04.15.04.3.19.35l.07.02s.05.01.08.01c.12,0,.23-.08.27-.2.04-.15-.04-.3-.19-.35Z" fill="#fff" stroke-width="0"/>
    <path d="M14.91,10.31l-.07-.02c-.15-.04-.3.04-.35.19s.04.3.19.35l.07.02s.05.01.08.01c.12,0,.23-.08.27-.2.04-.15-.04-.3-.19-.35Z" fill="#fff" stroke-width="0"/>
    <path d="M3.59,6.99l-.07-.02c-.15-.05-.31.04-.35.19-.04.15.04.31.19.35l.07.02s.05.01.08.01c.12,0,.23-.08.27-.2.04-.15-.04-.31-.19-.35Z" fill="#fff" stroke-width="0"/>
    <path d="M16.8,10.87l-.07-.02c-.15-.05-.31.04-.35.19-.04.15.04.3.19.35l.07.02s.05.01.08.01c.12,0,.23-.08.27-.2.04-.15-.04-.3-.19-.35Z" fill="#fff" stroke-width="0"/>
    <path d="M5.48,7.54l-.07-.02c-.15-.04-.3.04-.35.19-.04.15.04.3.19.35l.07.02s.05.01.08.01c.12,0,.23-.08.27-.2.04-.15-.04-.3-.19-.35Z" fill="#fff" stroke-width="0"/>
    <path d="M13.02,9.76l-.07-.02c-.16-.05-.31.04-.35.19-.04.15.04.3.19.35l.07.02s.05.01.08.01c.12,0,.23-.08.27-.2.04-.15-.04-.3-.19-.35Z" fill="#fff" stroke-width="0"/>
    <path d="M7.36,8.1l-.07-.02c-.15-.05-.31.04-.35.19-.04.15.04.3.19.35l.07.02s.05.01.08.01c.12,0,.23-.08.27-.2.04-.15-.04-.3-.19-.35Z" fill="#fff" stroke-width="0"/>
    <path d="M11.14,9.21l-.07-.02c-.15-.04-.3.04-.35.19s.04.3.19.35l.07.02s.05.01.08.01c.12,0,.23-.08.27-.2.04-.15-.04-.3-.19-.35Z" fill="#fff" stroke-width="0"/>
    <path d="M1.51,6.96h.04s.05.02.08.02c.12,0,.22-.08.26-.21.04-.15-.06-.31-.21-.35-.15-.04-.3.04-.35.19-.04.15.04.3.19.35Z" fill="#fff" stroke-width="0"/>
    <path d="M20.34,39.69c-.15.04-.24.2-.19.35.04.12.15.2.27.2.03,0,.05,0,.08-.01h.03c.15-.05.22-.2.18-.35s-.22-.23-.36-.19Z" fill="#fff" stroke-width="0"/>
    <path d="M223.48-135.3h21.17v-.56h-21.17c-35.17,0-63.78,28.61-63.78,63.78V2.27h21.17v13.55h-73.52V1.71h-21.17v-55.79c7.62,6.67,19.17,10.5,31.75,10.5s24.32-3.88,31.93-10.65l.24-.21-.24-.21c-7.62-6.77-19.26-10.65-31.93-10.65s-24.13,3.83-31.75,10.5v-17.27c0-34.86,28.36-63.21,63.21-63.21h21.17v-.56h-21.17c-35.17,0-63.78,28.61-63.78,63.78V2.27h21.17v13.55H33.28V1.71H12.11v-55.79c7.62,6.67,19.17,10.5,31.75,10.5s24.32-3.88,31.93-10.65l.24-.21-.24-.21c-7.62-6.77-19.26-10.65-31.93-10.65s-24.13,3.83-31.75,10.5v-17.27c0-34.86,28.36-63.21,63.21-63.21h21.17v-.56h-21.17c-35.17,0-63.78,28.61-63.78,63.78V2.27h21.17v14.11h.28s169.04,0,169.04,0v20.6H33.28s-.56,0-.56,0v7.34c0,.21.24,21.45,21.44,21.45h20.88v40.41h.56v-40.97h-21.45c-8.65,0-14.8-3.5-18.26-10.41-2.59-5.17-2.62-10.42-2.62-10.47v-6.77h73.51v6.77c0,.21.25,21.45,21.45,21.45h20.88v40.41h.56v-40.97h-21.45c-8.65,0-14.8-3.5-18.26-10.41-2.59-5.17-2.62-10.42-2.62-10.47v-6.77h73.52v6.77c0,.21.25,21.45,21.45,21.45h20.88v40.41h.56v-40.97h-21.45c-8.65,0-14.8-3.5-18.26-10.41-2.59-5.17-2.62-10.42-2.62-10.47v-6.77h21.17V15.82h-21.17V1.71h-21.17v-55.79c7.62,6.67,19.17,10.5,31.75,10.5s24.32-3.88,31.93-10.65l.24-.21-.24-.21c-7.62-6.77-19.26-10.65-31.93-10.65s-24.13,3.83-31.75,10.5v-17.27c0-34.86,28.36-63.21,63.21-63.21ZM109.65-59.24c.04.56.07,1.13.07,1.7,0,6.41-2.54,11.62-5.67,11.62s-5.67-5.21-5.67-11.62c0-.2,0-.39,0-.59,3.46-.53,7.32-.9,11.26-1.11ZM101.35-46.56c-5.71-1.76-10.76-4.42-14.73-7.88,2.01-1.59,6.12-2.78,11.2-3.6,0,.17,0,.33,0,.5,0,4.83,1.45,9,3.54,10.97ZM105.15-45.55c2.91-1.02,5.13-6,5.13-11.98,0-.58-.03-1.16-.07-1.73,2.59-.13,5.2-.19,7.73-.19,12.54,0,26.94,1.56,31.31,5.02-7.52,6.55-18.91,10.29-31.31,10.29-4.44,0-8.74-.49-12.79-1.4ZM146.7-56.45c-11.99-4.77-45.54-4.77-57.53,0,7.43-5.3,17.69-8.3,28.77-8.3s21.34,3,28.76,8.3ZM35.57-59.24c.04.57.07,1.14.07,1.7,0,6.41-2.54,11.62-5.67,11.62s-5.67-5.21-5.67-11.62c0-.2,0-.39,0-.59,3.46-.53,7.32-.9,11.26-1.11ZM27.28-46.56c-5.71-1.76-10.76-4.42-14.73-7.88,2.01-1.59,6.12-2.78,11.2-3.6,0,.17,0,.33,0,.5,0,4.83,1.45,9,3.54,10.97ZM31.07-45.55c2.91-1.02,5.13-6,5.13-11.98,0-.57-.03-1.15-.07-1.73,2.59-.13,5.19-.19,7.73-.19,12.54,0,26.94,1.56,31.31,5.02-7.52,6.55-18.91,10.29-31.31,10.29-4.44,0-8.74-.49-12.79-1.4ZM72.63-56.45c-11.98-4.77-45.54-4.77-57.53,0,7.43-5.3,17.68-8.3,28.76-8.3s21.34,3,28.77,8.3ZM183.73-59.24c.04.56.07,1.13.07,1.7,0,6.41-2.54,11.62-5.67,11.62s-5.67-5.21-5.67-11.62c0-.2,0-.39,0-.59,3.46-.53,7.32-.9,11.26-1.11ZM175.43-46.56c-5.71-1.76-10.76-4.42-14.73-7.88,2.01-1.59,6.12-2.78,11.2-3.6,0,.17,0,.33,0,.5,0,4.83,1.45,9,3.54,10.97ZM179.23-45.55c2.91-1.02,5.13-6,5.13-11.98,0-.59-.03-1.16-.07-1.73,2.59-.13,5.2-.19,7.73-.19,12.54,0,26.94,1.56,31.31,5.02-7.52,6.55-18.91,10.29-31.31,10.29-4.44,0-8.74-.49-12.79-1.4ZM220.78-56.45c-11.99-4.77-45.54-4.77-57.53,0,7.43-5.3,17.69-8.3,28.77-8.3s21.34,3,28.76,8.3Z" fill="#fff" stroke-width="0"/>
  </g>
</svg>