<?xml version="1.0" encoding="UTF-8"?>
<svg id="Layer_1" data-name="Layer 1" xmlns="http://www.w3.org/2000/svg" width="14mm" height="14mm" viewBox="0 0 39.69 39.69">
  <rect x="-151.07" y="-82.41" width="288" height="288" stroke-width="0"/>
  <path d="M-6.85-51.29c9.64-5.5,20.79-8.66,32.66-8.66h22.15c36.48,0,66.16,29.68,66.16,66.16h.56c0-36.79-29.93-66.72-66.72-66.72h-22.15c-12.09,0-23.43,3.25-33.22,8.9-9.79-5.65-21.13-8.9-33.22-8.9h-22.15c-36.79,0-66.72,29.93-66.72,66.72h.56c0-36.48,29.68-66.16,66.16-66.16h22.15c11.87,0,23.02,3.16,32.66,8.66C-27.67-39.67-40.92-18.25-40.92,6.22v77.8h22.15v17.89h-4.6c-3.13,0-5.77,1.03-7.62,2.97-1.64,1.73-2.55,4.05-2.55,6.54,0,4.58,3.18,9.51,10.17,9.51h4.6v7.1c0,.17.16,13.7,10.73,19.66-2.76,1.35-6.19,2.2-10.45,2.2h-22.43v33.5h.56v-32.94h21.87c4.56,0,8.18-.95,11.07-2.44,2.89,1.49,6.51,2.44,11.07,2.44h21.87v32.94h.56v-33.5H3.66c-4.26,0-7.68-.85-10.45-2.21,10.57-5.96,10.73-19.49,10.73-19.66v-7.1h4.6c3.13,0,5.77-1.03,7.62-2.97,1.64-1.73,2.55-4.05,2.55-6.54,0-4.58-3.18-9.51-10.17-9.51H3.94v-17.89h22.15V6.22c0-24.47-13.25-45.89-32.94-57.5ZM-13.29,25.15c0-1.27.11-2.52.3-3.73,1.87-.07,3.74-.1,5.58-.1s3.7.03,5.58.1c.19,1.2.3,2.45.3,3.73,0,6.63-2.63,12.03-5.87,12.04,0,0,0,0,0,0s0,0,0,0c-3.24,0-5.87-5.4-5.87-12.04ZM-9.37,37.15c-12.08-.37-23.08-4.19-30.46-10.63,3.81-3.03,15.05-4.66,26.28-5.09-.19,1.2-.3,2.44-.3,3.71,0,5.61,1.89,10.38,4.48,12ZM-.97,25.15c0-1.27-.11-2.51-.3-3.71,11.23.43,22.46,2.05,26.28,5.09-7.39,6.43-18.38,10.25-30.46,10.63,2.6-1.62,4.49-6.39,4.49-12ZM-37.25,24.48c7.69-5.52,18.34-8.64,29.84-8.64s22.15,3.12,29.84,8.64c-12.36-4.98-47.32-4.98-59.68,0ZM-18.21,111.7H3.38v8.67h-21.58v-8.67ZM3.38,111.14h-21.58v-8.67H3.38v8.67ZM-23.37,102.47h4.6v8.67h-14.19c.13-4.23,3.14-8.67,9.59-8.67ZM-23.37,120.37c-6.46,0-9.47-4.44-9.59-8.67h14.19v8.67h-4.6ZM-7.41,147.37c-10.62-5.71-10.79-19.17-10.79-19.34v-7.1H3.38v7.1c0,.17-.16,13.63-10.79,19.34ZM8.54,120.37H3.94v-8.67h14.19c-.13,4.23-3.14,8.67-9.59,8.67ZM8.54,102.47c6.46,0,9.47,4.44,9.59,8.67H3.94v-8.67h4.6ZM3.38,83.45v18.46h-21.58v-18.46h-22.15V26.81c7.88,6.95,19.88,10.94,32.94,10.94s25.06-3.99,32.94-10.94v56.64H3.38ZM25.53,26.22C17.64,19.27,5.65,15.29-7.42,15.29s-25.06,3.99-32.94,10.94V6.22c0-24.38,13.26-45.7,32.94-57.18C12.26-39.49,25.53-18.16,25.53,6.22v20.01Z" fill="#fff" stroke-width="0"/>
</svg>