<?xml version="1.0" encoding="UTF-8"?>
<svg id="Layer_1" data-name="Layer 1" xmlns="http://www.w3.org/2000/svg" width="14mm" height="14mm" viewBox="0 0 39.69 39.69">
  <rect x="-149.95" y="-161.48" width="288" height="288" stroke-width="0"/>
  <path d="M87.83,21.27V-14.9c0-22.78-16.05-33.16-30.97-33.16-13.29,0-27.47,8.25-30.41,26.15v-10.65c0-14.65,10.2-30.41,32.6-30.41h5.48c29.77,0,53.99-24.22,53.99-53.99h-.56c0,29.46-23.97,53.43-53.43,53.43h-5.48c-22.78,0-33.16,16.05-33.16,30.97V-6.16c-6.02-4.86-17.17-4.75-22.92.37l-.24.21.24.21c2.95,2.62,7.32,3.94,11.7,3.94s8.29-1.2,11.23-3.57V3.61c0,22.4-15.76,32.6-30.41,32.6S-34.93,26.01-34.93,3.61V-5.01c2.94,2.37,7.07,3.57,11.23,3.57,4.37,0,8.74-1.31,11.69-3.94l.24-.21-.24-.21c-5.76-5.11-16.9-5.23-22.92-.37v-26.4c0-14.92-10.38-30.97-33.16-30.97h-5.48c-29.46,0-53.43-23.97-53.43-53.43h-.56c0,29.77,24.22,53.99,53.99,53.99h5.48c22.4,0,32.6,15.76,32.6,30.41v10.65c-2.94-17.91-17.12-26.15-30.41-26.15-14.92,0-30.97,10.38-30.97,33.16V21.27c0,14.65-10.2,30.41-32.6,30.41v.56c22.78,0,33.16-16.05,33.16-30.97V-5.19c2.95,2.49,7.2,3.75,11.46,3.75s8.74-1.31,11.7-3.94l.24-.21-.24-.21c-5.83-5.18-17.19-5.24-23.16-.18v-8.92c0-22.4,15.76-32.6,30.41-32.6s30.41,10.2,30.41,32.6V-6.16c-6.02-4.86-17.17-4.75-22.92.37l-.24.21.24.21c2.95,2.62,7.32,3.94,11.69,3.94s8.29-1.2,11.23-3.57v22.91c0,10.24,3.35,18.83,9.68,24.86,5.62,5.35,13.18,8.3,21.29,8.3,14.92,0,30.97-10.38,30.97-33.16V-5.01c2.94,2.37,7.07,3.57,11.23,3.57,4.37,0,8.74-1.31,11.7-3.94l.24-.21-.24-.21c-5.76-5.12-16.9-5.23-22.92-.37v-8.74c0-22.4,15.76-32.6,30.41-32.6s30.41,10.2,30.41,32.6V-6c-5.98-5.03-17.31-4.96-23.13.21l-.24.21.24.21c2.95,2.62,7.32,3.94,11.7,3.94s8.49-1.25,11.43-3.73v26.43c0,14.92,10.38,30.97,33.16,30.97v-.56c-22.4,0-32.6-15.76-32.6-30.41ZM-84.35-9.09c1.99.22,3.54,1.7,3.54,3.51s-1.55,3.3-3.55,3.51c-.33,0-.65,0-.98,0-1.99-.22-3.55-1.7-3.55-3.51s1.55-3.29,3.54-3.51c.33,0,.66,0,.99,0ZM-82.2-2.23c1.18-.75,1.95-1.97,1.95-3.36s-.77-2.61-1.95-3.36c3.2.4,6.23,1.51,8.43,3.36-2.2,1.85-5.23,2.96-8.43,3.36ZM-87.49-8.94c-1.18.75-1.95,1.97-1.95,3.36s.77,2.61,1.95,3.36c-3.2-.4-6.23-1.51-8.43-3.36,2.2-1.85,5.23-2.96,8.43-3.36ZM14.18-2.07c-2-.21-3.55-1.7-3.55-3.51s1.55-3.29,3.54-3.51c.33,0,.67,0,1,0,1.99.22,3.53,1.7,3.53,3.51s-1.56,3.3-3.55,3.51c-.32,0-.64,0-.96,0ZM12.01-8.94c-1.18.75-1.95,1.97-1.95,3.35s.78,2.61,1.95,3.36c-3.2-.4-6.23-1.51-8.43-3.36,2.2-1.85,5.23-2.96,8.43-3.35ZM17.3-2.23c1.18-.75,1.95-1.97,1.95-3.36s-.77-2.61-1.95-3.36c3.2.4,6.23,1.51,8.43,3.36-2.2,1.85-5.23,2.96-8.43,3.36ZM-23.2-9.09c1.99.22,3.54,1.7,3.54,3.51s-1.56,3.3-3.55,3.51c-.32,0-.64,0-.96,0-2-.21-3.55-1.7-3.55-3.51s1.55-3.29,3.53-3.51c.33,0,.67,0,1,0ZM-21.06-2.23c1.18-.75,1.95-1.97,1.95-3.36s-.77-2.61-1.95-3.35c3.2.4,6.23,1.51,8.43,3.35-2.2,1.85-5.23,2.96-8.43,3.36ZM-26.35-8.94c-1.18.75-1.95,1.97-1.95,3.35s.78,2.61,1.95,3.36c-3.2-.4-6.23-1.51-8.43-3.36,2.2-1.85,5.23-2.96,8.43-3.35ZM-47.21-2.07c-1.99-.22-3.55-1.7-3.55-3.51s1.55-3.29,3.54-3.51c.33,0,.66,0,.99,0,1.99.22,3.54,1.7,3.54,3.51s-1.55,3.3-3.55,3.51c-.33,0-.65,0-.98,0ZM-49.37-8.94c-1.18.75-1.95,1.97-1.95,3.36s.77,2.61,1.95,3.36c-3.2-.4-6.23-1.51-8.43-3.36,2.2-1.85,5.23-2.96,8.43-3.36ZM-44.08-2.23c1.18-.75,1.95-1.97,1.95-3.36s-.77-2.61-1.95-3.36c3.2.4,6.23,1.51,8.43,3.36-2.2,1.85-5.23,2.96-8.43,3.36ZM25.89,17.91c0,22.4-15.76,32.6-30.41,32.6s-30.41-10.2-30.41-32.6v-7.29c2.94,17.91,17.12,26.15,30.41,26.15s27.47-8.25,30.41-26.15v7.29ZM38.17-9.09c1.99.22,3.54,1.7,3.54,3.51s-1.55,3.3-3.55,3.51c-.33,0-.65,0-.98,0-1.99-.22-3.55-1.7-3.55-3.51s1.55-3.29,3.54-3.51c.33,0,.66,0,.99,0ZM40.32-2.23c1.18-.75,1.95-1.97,1.95-3.36s-.77-2.61-1.95-3.36c3.2.4,6.23,1.51,8.43,3.36-2.2,1.85-5.23,2.96-8.43,3.36ZM35.03-8.94c-1.18.75-1.95,1.97-1.95,3.36s.77,2.61,1.95,3.36c-3.2-.4-6.23-1.51-8.43-3.36,2.2-1.85,5.23-2.96,8.43-3.36ZM75.35-2.07c-2-.21-3.55-1.7-3.55-3.51s1.55-3.29,3.53-3.51c.33,0,.67,0,1,0,1.99.22,3.54,1.7,3.54,3.51s-1.56,3.3-3.55,3.51c-.32,0-.64,0-.96,0ZM73.19-8.94c-1.18.75-1.95,1.97-1.95,3.35s.78,2.61,1.95,3.36c-3.2-.4-6.23-1.51-8.43-3.36,2.2-1.85,5.23-2.96,8.43-3.35ZM78.48-2.23c1.18-.75,1.95-1.97,1.95-3.36s-.77-2.61-1.95-3.35c3.2.4,6.23,1.51,8.43,3.35-2.2,1.85-5.23,2.96-8.43,3.36Z" fill="#fff" stroke-width="0"/>
</svg>