<?xml version="1.0" encoding="UTF-8"?>
<svg id="Layer_1" data-name="Layer 1" xmlns="http://www.w3.org/2000/svg" width="14mm" height="14mm" viewBox="0 0 39.69 39.69">
  <rect x="-124.16" y="-92.15" width="288" height="288" stroke-width="0"/>
  <g>
    <path d="M35.32,27.8c0,.16.13.28.28.28s.28-.13.28-.28v-.07c0-.16-.13-.28-.28-.28s-.28.13-.28.28v.07Z" fill="#fff" stroke-width="0"/>
    <path d="M35.32,29.75c0,.16.13.28.28.28s.28-.13.28-.28v-.07c0-.16-.13-.28-.28-.28s-.28.13-.28.28v.07Z" fill="#fff" stroke-width="0"/>
    <path d="M35.32,31.69c0,.16.13.28.28.28s.28-.13.28-.28v-.07c0-.16-.13-.28-.28-.28s-.28.13-.28.28v.07Z" fill="#fff" stroke-width="0"/>
    <path d="M35.6,24.2c.16,0,.28-.13.28-.28v-.07c0-.16-.13-.28-.28-.28s-.28.13-.28.28v.07c0,.16.13.28.28.28Z" fill="#fff" stroke-width="0"/>
    <path d="M35.32,37.52c0,.16.13.28.28.28s.28-.13.28-.28v-.07c0-.16-.13-.28-.28-.28s-.28.13-.28.28v.07Z" fill="#fff" stroke-width="0"/>
    <path d="M35.32,33.63c0,.16.13.28.28.28s.28-.13.28-.28v-.07c0-.16-.13-.28-.28-.28s-.28.13-.28.28v.07Z" fill="#fff" stroke-width="0"/>
    <path d="M35.32,35.58c0,.16.13.28.28.28s.28-.13.28-.28v-.07c0-.16-.13-.28-.28-.28s-.28.13-.28.28v.07Z" fill="#fff" stroke-width="0"/>
    <path d="M13.95,4.65l-.07.03.1.26.13.25-.07-.28.1.26c.15-.05.22-.21.17-.36-.05-.15-.21-.22-.36-.17Z" fill="#fff" stroke-width="0"/>
    <path d="M35.32,25.86c0,.16.13.28.28.28s.28-.13.28-.28v-.07c0-.16-.13-.28-.28-.28s-.28.13-.28.28v.07Z" fill="#fff" stroke-width="0"/>
    <path d="M31.56,9.43c.05.06.11.09.18.09s.13-.03.19-.08c.12-.1.11-.3.02-.42l-.22.18-.18.22.23-.16-.21.18Z" fill="#fff" stroke-width="0"/>
    <path d="M32.7,10.97c.05.07.12.11.2.11.06,0,.12-.02.17-.06.13-.09.15-.29.06-.42-.08-.13-.25-.17-.39-.09-.13.08-.17.25-.09.39l.04.07Z" fill="#fff" stroke-width="0"/>
    <path d="M33.62,12.63c.05.1.15.16.25.16.04,0,.08,0,.12-.03.14-.07.2-.23.13-.37l-.03-.07c-.07-.14-.24-.2-.38-.13-.14.07-.2.24-.13.38l.03.06Z" fill="#fff" stroke-width="0"/>
    <path d="M30.24,8.06c.05.05.12.07.19.07.08,0,.15-.03.21-.09.1-.11.1-.29-.02-.4l-.06-.05c-.12-.1-.29-.09-.4.02-.1.12-.09.29.02.4l.05.05Z" fill="#fff" stroke-width="0"/>
    <path d="M27.12,5.89s.09.03.13.03c.1,0,.2-.05.25-.15.07-.14.02-.31-.12-.38l-.07-.03c-.14-.07-.31-.02-.38.12-.07.14-.02.31.12.38l.06.03Z" fill="#fff" stroke-width="0"/>
    <path d="M34.85,16.24c.03.12.13.19.25.19.03,0,.05,0,.08,0,.15-.03.24-.22.2-.37-.03-.15-.18-.25-.33-.22-.15.03-.25.18-.22.33l.02.08Z" fill="#fff" stroke-width="0"/>
    <path d="M28.75,6.87s.09.04.13.04c.09,0,.17-.05.23-.14.09-.13.03-.32-.1-.41-.13-.09-.3-.06-.39.07-.09.13-.06.3.07.39l.06.04Z" fill="#fff" stroke-width="0"/>
    <path d="M34.57,14.56s.07,0,.11-.02c.15-.05.21-.24.16-.39-.05-.15-.21-.23-.35-.18-.15.05-.23.21-.18.35l.02.07c.04.11.13.16.23.16Z" fill="#fff" stroke-width="0"/>
    <path d="M35.16,18.06v.07c.03.14.15.25.29.25.01,0,.02,0,.03,0,.15-.02.26-.16.24-.31v-.07c-.03-.15-.17-.27-.32-.24-.15.02-.26.16-.24.31Z" fill="#fff" stroke-width="0"/>
    <path d="M35.59,19.96l-.28.05.28.03h-.28c0,.16.13.28.28.28h0c.15,0,.28-.13.27-.29l-.28-.03.28-.04h-.28Z" fill="#fff" stroke-width="0"/>
    <path d="M35.6,21.62c-.16,0-.28.13-.28.28v.07c0,.16.13.28.28.28s.28-.13.28-.28v-.07c0-.16-.13-.28-.28-.28Z" fill="#fff" stroke-width="0"/>
    <path d="M35.6,39.1c-.15,0-.28.13-.27.29v.07c0,.16.13.28.28.28s.28-.13.28-.28v-.08c0-.15-.12-.28-.29-.27Z" fill="#fff" stroke-width="0"/>
    <path d="M4.08,24.45c.16,0,.28-.13.28-.28v-.07c0-.16-.13-.28-.28-.28s-.28.13-.28.28v.07c0,.16.13.28.28.28Z" fill="#fff" stroke-width="0"/>
    <path d="M4.91,14.81s.06.02.09.02c.12,0,.23-.07.27-.19l.02-.08c.05-.15-.04-.27-.19-.32-.15-.05-.32.06-.36.21-.05.15.03.31.17.36Z" fill="#fff" stroke-width="0"/>
    <path d="M5.71,13.01c.11,0,.21-.06.26-.16l.03-.06c.07-.14,0-.31-.14-.37-.14-.07-.31,0-.37.14l-.03.07c-.06.14,0,.31.14.37.04.02.08.02.12.02Z" fill="#fff" stroke-width="0"/>
    <path d="M4.45,16.69s.04,0,.06,0c.13,0,.24-.09.27-.22l.02-.08c.03-.15-.07-.27-.22-.3-.15-.03-.31.1-.34.25-.03.15.06.3.21.34Z" fill="#fff" stroke-width="0"/>
    <path d="M6.62,11.3c.09,0,.18-.05.24-.13l.04-.06c.08-.13.02-.28-.11-.36-.13-.08-.32-.01-.4.12-.08.13-.04.3.09.39.05.03.1.04.15.04Z" fill="#fff" stroke-width="0"/>
    <path d="M4.08,20.56h0c.15,0,.28-.12.28-.27v-.07c0-.16-.12-.28-.27-.29-.15.01-.28.12-.29.27v.07c0,.16.12.28.27.29Z" fill="#fff" stroke-width="0"/>
    <path d="M4.08,22.5c.16,0,.28-.13.28-.28v-.07c0-.16-.13-.28-.28-.28s-.28.13-.28.28v.07c0,.16.13.28.28.28Z" fill="#fff" stroke-width="0"/>
    <path d="M15.77,4.08c-.15.04-.24.19-.21.34.03.13.15.22.27.22.02,0,.04,0,.06,0l.07-.02c.15-.04.21-.18.17-.33-.04-.15-.22-.23-.37-.2Z" fill="#fff" stroke-width="0"/>
    <path d="M4.18,18.62s.02,0,.04,0c.14,0,.26-.1.28-.25v-.08c.02-.15-.09-.26-.25-.28-.17,0-.3.13-.31.28-.02.15.09.29.24.31Z" fill="#fff" stroke-width="0"/>
    <path d="M7.75,9.72c.08,0,.16-.03.21-.1l.05-.06c.1-.12.06-.27-.06-.37-.12-.1-.32-.05-.42.07-.1.12-.08.3.03.4.05.04.12.07.18.07Z" fill="#fff" stroke-width="0"/>
    <path d="M21.73,3.68h-.07s-.03.27-.03.27v.28s.07-.27.07-.27l-.03.28s.02,0,.03,0c.14,0,.26-.1.28-.25.02-.15-.09-.29-.24-.31Z" fill="#fff" stroke-width="0"/>
    <path d="M19.75,3.58h-.08c-.15,0-.28.13-.27.29,0,.15.13.27.28.27h.07c.16,0,.28-.13.28-.28s-.13-.28-.28-.28Z" fill="#fff" stroke-width="0"/>
    <path d="M4.08,26.39c.16,0,.28-.13.28-.28v-.07c0-.16-.13-.28-.28-.28s-.28.13-.28.28v.07c0,.16.13.28.28.28Z" fill="#fff" stroke-width="0"/>
    <path d="M23.61,4.01c-.15-.04-.3.05-.34.2-.04.15.05.3.2.34l.08.02s.04,0,.06,0c.12,0,.22-.09.25-.23.03-.15-.09-.31-.24-.34Z" fill="#fff" stroke-width="0"/>
    <path d="M17.78,3.71h-.07c-.15.03-.26.17-.24.32.02.14.14.25.28.25.01,0,.02,0,.04,0h.07c.15-.03.26-.17.24-.32-.02-.15-.16-.27-.31-.24Z" fill="#fff" stroke-width="0"/>
    <path d="M10.76,6.99l-.13-.25.16.23c.13-.09.16-.26.07-.39-.09-.13-.26-.16-.39-.07l-.06.04.16.23.19.21Z" fill="#fff" stroke-width="0"/>
    <path d="M9.29,8.2l-.17-.23.19.21c.11-.1.12-.28.02-.4-.1-.11-.28-.12-.4-.02l-.05.05.19.21.22.18Z" fill="#fff" stroke-width="0"/>
    <path d="M25.57,4.59l-.07-.02c-.14-.05-.31.02-.36.17-.05.15.02.31.17.36l.07.02s.06.02.1.02c.11,0,.22-.07.26-.18.05-.15-.02-.31-.17-.36Z" fill="#fff" stroke-width="0"/>
    <path d="M12.22,6.03s.09-.01.13-.03l.07-.04c.14-.07.16-.23.08-.36-.07-.14-.27-.17-.41-.1-.14.07-.19.24-.12.38.05.1.15.15.25.15Z" fill="#fff" stroke-width="0"/>
    <path d="M4.08,28.33c.16,0,.28-.13.28-.28v-.07c0-.16-.13-.28-.28-.28s-.28.13-.28.28v.07c0,.16.13.28.28.28Z" fill="#fff" stroke-width="0"/>
    <path d="M4.08,30.28c.16,0,.28-.13.28-.28v-.07c0-.16-.13-.28-.28-.28s-.28.13-.28.28v.07c0,.16.13.28.28.28Z" fill="#fff" stroke-width="0"/>
    <path d="M4.08,38.05c.16,0,.28-.13.28-.28v-.07c0-.16-.13-.28-.28-.28s-.28.13-.28.28v.07c0,.16.13.28.28.28Z" fill="#fff" stroke-width="0"/>
    <path d="M4.08,36.11c.16,0,.28-.13.28-.28v-.07c0-.16-.13-.28-.28-.28s-.28.13-.28.28v.07c0,.16.13.28.28.28Z" fill="#fff" stroke-width="0"/>
    <path d="M4.08,34.17c.16,0,.28-.13.28-.28v-.07c0-.16-.13-.28-.28-.28s-.28.13-.28.28v.07c0,.16.13.28.28.28Z" fill="#fff" stroke-width="0"/>
    <path d="M4.08,32.22c.16,0,.28-.13.28-.28v-.07c0-.16-.13-.28-.28-.28s-.28.13-.28.28v.07c0,.16.13.28.28.28Z" fill="#fff" stroke-width="0"/>
    <path d="M4.07,40h0c.15,0,.28-.12.28-.27v-.07c0-.16-.12-.28-.27-.29-.14.02-.28.12-.29.27v.07c0,.16.12.28.27.29Z" fill="#fff" stroke-width="0"/>
    <path d="M133.3,111.89h-17.92v-60.85s0,0,0,0,0,0,0,0c0-23.13-18.82-41.95-41.95-41.95h-4.25c-17.34,0-25.23-12.2-25.23-23.53v-28.07c0-17.72-12.49-25.79-24.09-25.79S-4.25-60.24-4.25-42.52V-14.45c0,11.33-7.9,23.53-25.23,23.53h-4.25c-23.13,0-41.95,18.82-41.95,41.95,0,0,0,0,0,0s0,0,0,0v60.85h-17.92v.56h226.91v-.56ZM-75.13,51.04s0,0,0,0c0-22.82,18.57-41.39,41.39-41.39h4.25C-11.76,9.64-3.69-2.85-3.69-14.45v-23.76c2.3,1.93,5.59,2.9,8.9,2.9s6.5-.94,8.79-2.81v16.86h7.22v-.56h-6.66v-16.76h0s0,0,0,0h0s0,0,0,0l-.23-.2c-4.53-4.03-13.36-4.08-18.02-.17v-3.55c0-17.34,12.2-25.23,23.53-25.23,6.17,0,11.91,2.24,16.18,6.3,4.81,4.58,7.35,11.13,7.35,18.93v3.47c-4.69-3.82-13.41-3.75-17.91.25l-.24.21.24.21c2.3,2.04,5.71,3.07,9.12,3.07s6.5-.95,8.79-2.81V-14.45c0,11.6,8.07,24.09,25.79,24.09h4.25c22.82,0,41.39,18.57,41.39,41.39,0,0,0,0,0,0s0,0,0,0v60.85h-31.68s.02-.04.02-.06v-.07c0-.16-.13-.28-.28-.28s-.28.13-.28.28v.07s.02.04.02.06h-26.63v-3.07h0s0,0,0,0c0-8.81-7.17-15.97-15.97-15.97h-1.6c-6.41,0-9.33-4.5-9.33-8.69v-10.57c0-6.79-4.79-9.89-9.25-9.89s-9.25,3.09-9.25,9.89v10.57c0,4.18-2.92,8.69-9.33,8.69H-.33c-8.81,0-15.97,7.17-15.97,15.97,0,0,0,0,0,0h0v3.07h-26.68c-.05-.09-.12-.16-.23-.16s-.18.07-.23.16h-31.68v-60.85s0,0,0,0ZM2.14-38.59c0-1.38,1.2-2.52,2.73-2.67.22,0,.45,0,.67,0,1.53.15,2.73,1.28,2.73,2.67s-1.2,2.51-2.72,2.67c-.23,0-.46,0-.69,0-1.53-.15-2.72-1.28-2.72-2.67ZM8.84-38.59c0-1.02-.54-1.92-1.36-2.52,2.36.33,4.58,1.16,6.23,2.52-1.64,1.36-3.87,2.19-6.23,2.52.82-.6,1.36-1.5,1.36-2.52ZM1.58-38.59c0,1.02.54,1.92,1.36,2.52-2.36-.33-4.58-1.16-6.23-2.52,1.64-1.36,3.87-2.19,6.23-2.52-.82.6-1.36,1.5-1.36,2.52ZM37.65-38.59c0,1.38-1.2,2.52-2.73,2.67-.23,0-.45,0-.67,0-1.53-.15-2.73-1.28-2.73-2.67s1.2-2.52,2.73-2.67c.22,0,.45,0,.67,0,1.53.15,2.73,1.28,2.73,2.67ZM30.95-38.59c0,1.02.54,1.92,1.36,2.52-2.36-.33-4.58-1.16-6.23-2.52,1.64-1.36,3.87-2.19,6.23-2.52-.82.6-1.36,1.5-1.36,2.52ZM38.21-38.59c0-1.02-.54-1.92-1.36-2.52,2.36.33,4.58,1.16,6.23,2.52-1.64,1.36-3.87,2.19-6.23,2.52.82-.6,1.36-1.5,1.36-2.52ZM-15.75,108.82s0,0,0,0c0-8.5,6.91-15.41,15.41-15.41h1.6c6.79,0,9.89-4.79,9.89-9.25v-8.86c.87.77,2.1,1.17,3.33,1.17,1.14,0,2.26-.35,3.12-1.01v6.22h2.89v-.56h-2.33v-6.13h0s0,0,0,0h0s0,0,0,0l-.2-.2c-1.71-1.67-5.02-1.7-6.81-.12v-1.07c0-6.41,4.5-9.33,8.69-9.33s8.69,2.92,8.69,9.33v.93c-1.83-1.43-4.97-1.36-6.63.26l-.21.2.21.2c.88.86,2.18,1.29,3.48,1.29,1.15,0,2.29-.36,3.15-1.03v8.72c0,4.45,3.09,9.25,9.89,9.25h1.6c8.5,0,15.41,6.91,15.41,15.41,0,0,0,0,0,0h0v3.07H-15.74v-3.07h0ZM11.62,74.98c1.52-1.23,4.21-1.22,5.72,0-1.51,1.23-4.21,1.23-5.72,0ZM28.24,74.98c-1.51,1.22-4.21,1.22-5.72,0,1.51-1.22,4.21-1.22,5.72,0Z" fill="#fff" stroke-width="0"/>
  </g>
</svg>