<?xml version="1.0" encoding="UTF-8"?>
<svg id="Layer_1" data-name="Layer 1" xmlns="http://www.w3.org/2000/svg" width="14mm" height="14mm" viewBox="0 0 39.69 39.69">
  <rect x="-113.72" y="-88.62" width="288" height="288" stroke-width="0"/>
  <path d="M136.92-36.37c-9.95-10.88-23.62-16.88-38.5-16.88h-21.32c-15.09,0-29.39,5.99-40.27,16.87C27.26-26.81,21.48-14.59,20.23-1.52l-.02-4.61c0-.19-.11-4.72-2.54-9.33-2.25-4.27-6.99-9.36-16.8-9.36h-17.13v-38.27h-.56V-24.26H.86c7.65,0,13.13,3.04,16.3,9.04,2.37,4.49,2.48,9.05,2.48,9.09l.04,7.34h-6.89c-2.74,0-5.04.99-6.66,2.87-1.43,1.66-2.22,3.9-2.22,6.29,0,4.41,2.78,9.16,8.88,9.16h6.98l.19,35.84v.28h20.06v35.15c-7.23-7.4-18.05-11.64-29.82-11.64s-23.08,4.42-30.3,12.13l-.18.19.18.19c7.23,7.71,18.27,12.13,30.3,12.13s22.59-4.24,29.82-11.64v14.7c0,14.94-5.93,29.1-16.7,39.87-10.77,10.77-24.93,16.7-39.87,16.7h-21.32c-14.72,0-28.24-5.93-38.08-16.69-9.63-10.54-14.94-24.7-14.94-39.88h-.56c0,15.32,5.36,29.62,15.08,40.26,9.95,10.88,23.62,16.88,38.5,16.88h21.32c15.09,0,29.39-5.99,40.27-16.87,9.57-9.57,15.35-21.79,16.61-34.86l.02,4.62c0,.19.11,4.72,2.54,9.33,2.25,4.27,6.98,9.36,16.8,9.36h17.13v38.42h.56v-38.98h-17.69c-7.65,0-13.13-3.04-16.3-9.04-2.37-4.49-2.48-9.05-2.48-9.09l-.04-7.34h6.89c2.74,0,5.04-.99,6.66-2.87,1.43-1.66,2.22-3.9,2.22-6.29,0-4.41-2.78-9.16-8.88-9.16h-6.98l-.19-35.84v-.28h-20.06V19.95c7.23,7.4,18.04,11.64,29.81,11.64h0c12.03,0,23.08-4.42,30.3-12.13l.18-.19-.18-.19c-7.23-7.71-18.27-12.13-30.3-12.13-11.77,0-22.59,4.24-29.81,11.64V3.89c0-14.94,5.93-29.1,16.7-39.87,10.77-10.77,24.93-16.7,39.87-16.7h21.32c14.72,0,28.24,5.93,38.08,16.69,9.63,10.54,14.93,24.7,14.93,39.88h.56c0-15.32-5.36-29.62-15.08-40.26ZM39.92,91.49c-3.45,3.35-13.75,5.14-24.05,5.62.17-1.32.27-2.7.27-4.1,0-6.31-1.73-11.51-4.16-13.22,11.08.41,21.17,4.61,27.94,11.71ZM5.13,97.13c-.18-1.33-.28-2.71-.28-4.13,0-7.19,2.46-13.26,5.36-13.26s5.36,6.07,5.36,13.26c0,1.42-.1,2.8-.28,4.13-1.71.07-3.41.11-5.08.11-1.67,0-3.37-.04-5.08-.11ZM8.45,79.78c-2.43,1.71-4.16,6.91-4.16,13.22,0,1.4.1,2.78.28,4.1-10.31-.48-20.61-2.27-24.05-5.62,6.77-7.09,16.86-11.3,27.94-11.71ZM-17.16,93.7c6.12,2.98,17.93,4.1,27.38,4.1h0c9.45,0,21.26-1.11,27.38-4.09-7.04,6.1-16.82,9.55-27.38,9.55s-20.33-3.45-27.38-9.55ZM54,106.31c-1.51,1.75-3.66,2.68-6.24,2.68h-6.89l-.04-8.32h15.24c-.06,2.15-.78,4.15-2.07,5.64ZM47.76,91.78c5.59,0,8.19,4.26,8.31,8.32h-15.24l-.04-8.32h6.98ZM12.79,1.78h6.89l.04,8.32H4.49c.11-4.06,2.72-8.32,8.31-8.32ZM12.79,18.99c-5.59,0-8.19-4.26-8.31-8.32h15.24l.04,8.32h-6.98ZM20.64,19.28c3.45-3.35,13.75-5.14,24.05-5.62-.17,1.33-.28,2.7-.28,4.1,0,6.31,1.73,11.51,4.16,13.22-11.08-.41-21.17-4.61-27.94-11.71ZM55.43,13.64c.18,1.33.28,2.72.28,4.13,0,7.19-2.45,13.26-5.36,13.26h0c-2.91,0-5.36-6.07-5.36-13.26,0-1.41.1-2.8.28-4.13,1.71-.07,3.41-.11,5.08-.11s3.37.04,5.08.11ZM52.11,30.99c2.43-1.71,4.16-6.91,4.16-13.22,0-1.4-.1-2.78-.27-4.1,10.31.48,20.6,2.27,24.05,5.62-6.77,7.1-16.86,11.3-27.94,11.71ZM77.72,17.06c-6.12-2.98-17.93-4.09-27.38-4.09s-21.26,1.11-27.38,4.1c7.04-6.1,16.82-9.55,27.38-9.55,10.56,0,20.33,3.45,27.38,9.55Z" fill="#fff" stroke-width="0"/>
</svg>