<?xml version="1.0" encoding="UTF-8"?>
<svg id="Layer_1" data-name="Layer 1" xmlns="http://www.w3.org/2000/svg" width="14mm" height="14mm" viewBox="0 0 39.69 39.69">
  <rect x="-124.16" y="-91.23" width="288" height="288" stroke-width="0"/>
  <g>
    <path d="M95.54,42.01h-4.15c-16.92,0-24.62-11.9-24.62-22.96V-8.34c0-17.3-12.19-25.18-23.52-25.18-10.34,0-21.4,6.57-23.25,20.88-1.85-14.31-12.91-20.88-23.25-20.88-11.33,0-23.52,7.88-23.52,25.18v27.39c0,11.06-7.7,22.96-24.62,22.96h-4.15c-22.58,0-40.95,18.37-40.95,40.95,0,.16.13.28.28.28s.28-.13.28-.28c0-22.27,18.12-40.39,40.39-40.39h4.15c15.42,0,23.35-9.68,24.89-19.81.04.11.12.2.25.2h.08c.16,0,.25-.13.24-.29,0-.15-.15-.28-.32-.27-.09,0-.16.04-.21.1.16-1.15.25-2.31.25-3.45V1.81c.13-.03.23-.12.23-.26s-.1-.23-.23-.26v-5.37c2.24,1.84,5.42,2.77,8.62,2.77s6.34-.92,8.58-2.74V12.41H-1.95v-.56h-6.49V-4.51h0l-.24-.21c-4.4-3.91-12.96-3.98-17.52-.22v-3.4c0-16.92,11.9-24.62,22.96-24.62s22.96,7.7,22.96,24.62v3.25c-4.61-3.61-12.99-3.49-17.34.37l-.24.21.24.21c2.25,2,5.57,2.99,8.9,2.99,3.11,0,6.21-.88,8.43-2.63v22.98s.01.02.01.03c0,1.17-.09,2.34-.27,3.51-.05-.07-.12-.11-.2-.12l-.06.28-.02-.28c-.15-.02-.27.11-.28.26-.01.15.12.29.28.3,0,0,.04,0,.04,0,0,0,.01,0,.02,0,.06,0,.11-.03.16-.06-1.62,9.78-9.37,19.04-24.29,19.04h-4.15c-22.58,0-40.95,18.37-40.95,40.95,0,.16.13.28.28.28s.28-.13.28-.28c0-22.27,18.12-40.39,40.39-40.39h4.15c17.3,0,25.18-12.19,25.18-23.52V1.75s.03.02.04.02h.08s0,0,0,0c.15,0,.28-.12.28-.27,0-.16-.12-.28-.27-.29h-.07s0,0-.01,0c-.02,0-.03.02-.05.02V-3.92c2.23,1.74,5.32,2.62,8.42,2.62s6.34-.92,8.57-2.74V12.41h7.05v-.56h-6.49V-4.51h0s-.24-.21-.24-.21c-4.34-3.86-12.71-3.98-17.32-.38v-3.25c0-16.92,11.9-24.62,22.96-24.62,6.02,0,11.62,2.18,15.78,6.15,4.69,4.47,7.17,10.86,7.17,18.47v3.37c-4.58-3.72-13.09-3.65-17.48.26l-.24.21.24.21c2.25,2,5.57,3,8.9,3s6.34-.92,8.58-2.74V1.34s-.02,0-.02,0c-.15-.01-.25.11-.26.26,0,.15.13.28.28.3v17.15c0,1.13.08,2.26.24,3.4-.04-.02-.09-.05-.14-.04v.28s-.07-.28-.07-.28c-.15.02-.25.15-.24.3.01.15.15.25.29.25,0,0,.02,0,.03,0,0,0,.04,0,.04,0,.06,0,.11-.04.15-.08,1.59,10.08,9.52,19.69,24.88,19.69h4.15c22.27,0,40.39,18.12,40.39,40.39,0,.16.13.28.28.28s.28-.13.28-.28c0-22.58-18.37-40.95-40.95-40.95ZM-20.57-4.51c0-1.35,1.16-2.44,2.65-2.59.23,0,.45,0,.68,0,1.49.15,2.65,1.25,2.65,2.59s-1.17,2.45-2.66,2.6c-.22,0-.43,0-.65,0-1.49-.14-2.66-1.25-2.66-2.6ZM-15.34-2.06c.79-.58,1.31-1.46,1.31-2.45s-.52-1.86-1.31-2.45c2.29.32,4.45,1.14,6.04,2.45-1.6,1.32-3.75,2.13-6.04,2.45ZM-19.82-6.96c-.79.58-1.31,1.46-1.31,2.45s.52,1.87,1.31,2.45c-2.29-.32-4.45-1.14-6.04-2.45,1.6-1.31,3.75-2.13,6.04-2.45ZM14.27-4.51c0,1.35-1.17,2.45-2.66,2.59-.22,0-.44,0-.66,0-1.49-.15-2.66-1.25-2.66-2.59s1.16-2.44,2.65-2.59c.23,0,.45,0,.68,0,1.49.15,2.65,1.25,2.65,2.59ZM9.04-6.96c-.79.58-1.31,1.46-1.31,2.45s.52,1.86,1.31,2.45c-2.29-.32-4.45-1.14-6.04-2.45,1.6-1.31,3.75-2.13,6.04-2.45ZM13.52-2.06c.79-.58,1.31-1.46,1.31-2.45s-.52-1.86-1.31-2.45c2.29.32,4.45,1.14,6.04,2.45-1.6,1.31-3.75,2.13-6.04,2.45ZM25.73-4.51c0-1.35,1.16-2.44,2.65-2.59.22,0,.45,0,.67,0,1.49.15,2.65,1.25,2.65,2.59s-1.17,2.45-2.65,2.59c-.22,0-.44,0-.66,0-1.49-.15-2.65-1.25-2.65-2.59ZM30.96-2.06c.79-.58,1.31-1.46,1.31-2.45s-.52-1.86-1.31-2.45c2.29.32,4.45,1.14,6.04,2.45-1.6,1.31-3.75,2.13-6.04,2.45ZM26.48-6.96c-.79.58-1.31,1.46-1.31,2.45s.52,1.87,1.31,2.45c-2.29-.32-4.45-1.14-6.04-2.45,1.6-1.31,3.75-2.13,6.04-2.45ZM60.62-4.51c0,1.35-1.17,2.45-2.65,2.59-.22,0-.44,0-.66,0-1.49-.15-2.65-1.25-2.65-2.59s1.16-2.44,2.65-2.59c.22,0,.45,0,.67,0,1.49.15,2.65,1.25,2.65,2.59ZM55.4-6.96c-.79.58-1.31,1.46-1.31,2.45s.52,1.87,1.31,2.45c-2.29-.32-4.45-1.14-6.04-2.45,1.6-1.31,3.75-2.13,6.04-2.45ZM59.88-2.06c.79-.58,1.31-1.46,1.31-2.45s-.52-1.86-1.31-2.45c2.29.32,4.45,1.14,6.04,2.45-1.6,1.31-3.75,2.13-6.04,2.45Z" fill="#fff" stroke-width="0"/>
    <path d="M29.7,15.83l-.03.08c-.05.15.03.31.17.36.03.01.06.02.09.02.12,0,.22-.07.27-.19l.02-.06c.06-.14-.01-.31-.16-.36-.15-.05-.31.02-.36.16Z" fill="#fff" stroke-width="0"/>
    <path d="M30.34,11.31v.07c.02.15.14.26.29.26,0,0,.01,0,.02,0,.16-.01.27-.15.26-.3v-.07c-.02-.15-.16-.26-.31-.26-.16.01-.27.15-.26.3Z" fill="#fff" stroke-width="0"/>
    <path d="M29.88,7.43c-.07-.14-.22-.16-.36-.09-.14.07-.18.27-.11.41.05.1.14.15.24.15.04,0,.09,0,.13-.03.14-.07.19-.25.12-.39,0,0-.02-.04-.02-.04Z" fill="#fff" stroke-width="0"/>
    <path d="M30.23,9.11c-.15.04-.24.19-.2.34,0,0,.02.07.02.07.03.11.13.17.24.17.03,0,.06,0,.09-.01.15-.04.23-.22.19-.37h0c-.04-.16-.19-.25-.34-.21Z" fill="#fff" stroke-width="0"/>
    <path d="M18.45,1.88h.08c.15-.04.26-.18.23-.33-.03-.15-.17-.26-.32-.23h-.07c-.15.03-.26.18-.24.33.02.14.14.24.28.24.01,0,.03,0,.04,0Z" fill="#fff" stroke-width="0"/>
    <path d="M17.26,22.71s.04,0,.06,0c.12,0,.21-.09.25-.22.04-.15-.08-.31-.24-.35-.15-.04-.3.04-.35.19-.04.15.04.3.19.35l.08.02Z" fill="#fff" stroke-width="0"/>
    <path d="M30.66,11.85c-.16,0-.28.13-.28.28v.07c0,.16.13.28.28.28s.28-.13.28-.28v-.07c0-.16-.13-.28-.28-.28Z" fill="#fff" stroke-width="0"/>
    <path d="M30.53,13.79c-.16-.03-.3.08-.32.23,0,0-.01.07-.01.07-.02.15.08.28.23.3.01,0,.03,0,.04,0,.14,0,.26-.11.28-.25,0,0,0-.04,0-.04.03-.15-.08-.3-.23-.32Z" fill="#fff" stroke-width="0"/>
    <path d="M23.11,22.61l.06-.02c.15-.04.23-.2.19-.35-.04-.15-.2-.23-.35-.19l-.08.02c-.15.05-.23.21-.18.35.04.12.15.19.27.19.03,0,.06,0,.09-.01Z" fill="#fff" stroke-width="0"/>
    <path d="M24.82,21.91s.09-.01.13-.03l.05-.03c.14-.07.19-.24.12-.38-.07-.14-.24-.2-.38-.13l-.07.04c-.14.07-.19.25-.11.38.05.09.15.15.25.15Z" fill="#fff" stroke-width="0"/>
    <path d="M24.19,2.62c.11,0,.21-.06.26-.17.06-.14,0-.31-.15-.37l-.07-.03c-.14-.06-.28.02-.34.17-.06.14.04.32.18.38.04.02.07.02.11.02Z" fill="#fff" stroke-width="0"/>
    <path d="M21.15,23h.07c.15-.02.27-.16.25-.32-.02-.15-.15-.27-.31-.25h-.08c-.15.03-.26.17-.25.32.02.14.14.25.28.25.01,0,.02,0,.03,0Z" fill="#fff" stroke-width="0"/>
    <path d="M22.28,2.01s.04,0,.06,0c.13,0,.23-.09.26-.23.03-.15-.08-.3-.23-.34,0,0-.04,0-.04,0-.16-.03-.3.07-.33.22-.03.15.07.3.22.33l.07.02Z" fill="#fff" stroke-width="0"/>
    <path d="M26.13,3.42c.09-.13.05-.3-.08-.39l-.07-.04c-.13-.08-.28-.03-.36.1-.08.13-.02.32.11.41.05.03.1.05.16.05.09,0,.18-.04.23-.12Z" fill="#fff" stroke-width="0"/>
    <path d="M28.91,17.97s.1.04.15.04c.09,0,.19-.05.24-.13l.04-.06c.08-.13.04-.31-.09-.39-.13-.08-.3-.04-.39.09l-.04.06c-.08.13-.04.31.09.39Z" fill="#fff" stroke-width="0"/>
    <path d="M28.86,5.73c-.09-.13-.26-.16-.39-.07-.13.09-.16.26-.07.39l.05.07c.06.07.14.11.22.11.06,0,.12-.02.17-.06.12-.09.15-.27.05-.39l-.03-.05Z" fill="#fff" stroke-width="0"/>
    <path d="M27.7,19.49c.05.05.12.08.19.08.07,0,.15-.03.2-.09l.06-.06c.1-.12.07-.27-.05-.37-.12-.1-.32-.07-.42.05-.11.11-.1.29.01.4Z" fill="#fff" stroke-width="0"/>
    <path d="M26.63,20.82l.06-.05c.12-.1.12-.25.02-.37-.1-.12-.3-.12-.42-.03-.12.09-.15.27-.06.39.05.07.14.11.22.11.06,0,.12-.02.17-.06Z" fill="#fff" stroke-width="0"/>
    <path d="M27.55,4.22c-.11-.11-.27-.08-.37.03-.11.11-.08.31.03.42.05.05.13.08.2.08s.14-.03.2-.08c.11-.11.11-.29,0-.4l-.06-.06Z" fill="#fff" stroke-width="0"/>
    <path d="M13.83,21.08c.09,0,.17-.04.23-.12.09-.13.06-.3-.06-.39l-.06-.04c-.13-.09-.3-.06-.39.07-.09.13-.06.3.07.39l.05.04s.11.05.17.05Z" fill="#fff" stroke-width="0"/>
    <path d="M10.08,15.99c-.14.06-.21.22-.16.37l.03.08c.04.1.13.14.22.14.04,0,.09,0,.13-.03.14-.06.19-.26.13-.4-.06-.14-.22-.21-.37-.16Z" fill="#fff" stroke-width="0"/>
    <path d="M13.34,4.18s.06-.05.06-.05c.11-.1.11-.26,0-.38-.1-.11-.29-.11-.41-.02h-.02c-.12.11-.13.29-.03.41.06.07.13.1.21.1.06,0,.13-.02.18-.07Z" fill="#fff" stroke-width="0"/>
    <path d="M12.1,19.68l.05.05c.05.05.11.07.17.07.07,0,.15-.03.21-.09.11-.11.09-.31-.02-.42-.11-.11-.29-.12-.4-.01-.11.11-.12.28-.01.4Z" fill="#fff" stroke-width="0"/>
    <path d="M16.58,2.32s.07,0,.1-.02c.15-.05.23-.21.18-.36s-.21-.23-.36-.18l-.07.02c-.15.05-.19.2-.14.35.04.11.16.18.29.18Z" fill="#fff" stroke-width="0"/>
    <path d="M9.08,12.49v.07c0,.15.13.27.28.27h.01c.15,0,.28-.14.27-.29v-.07c0-.16-.12-.27-.29-.27-.15,0-.28.14-.27.29Z" fill="#fff" stroke-width="0"/>
    <path d="M11.62,5.12l-.04.05c-.1.12-.08.3.03.4.05.04.12.07.18.07.08,0,.16-.03.21-.1l.05-.06c.1-.12.08-.3-.05-.39-.12-.1-.3-.08-.39.05Z" fill="#fff" stroke-width="0"/>
    <path d="M9.19,10.54s0,.04,0,.04c-.02.15.09.29.24.31.01,0,.02,0,.03,0,.14,0,.26-.1.28-.25l-.27-.07h.28c.02-.15-.09-.27-.24-.3-.16-.02-.3.1-.32.26Z" fill="#fff" stroke-width="0"/>
    <path d="M9.53,14.13c-.15.04-.24.19-.2.34v.06c.04.13.16.22.29.22.02,0,.04,0,.06,0,.15-.03.25-.18.22-.33l-.02-.08c-.04-.15-.18-.24-.34-.2Z" fill="#fff" stroke-width="0"/>
    <path d="M14.9,3.11l.06-.04c.13-.08.18-.25.11-.38-.08-.14-.25-.18-.38-.11l-.06.04c-.13.08-.18.25-.1.38.05.09.15.14.24.14.05,0,.1-.01.14-.04Z" fill="#fff" stroke-width="0"/>
    <path d="M15.5,22.06c.1,0,.21-.06.25-.16.07-.14,0-.31-.13-.37l-.07-.03c-.14-.06-.31,0-.37.14-.06.14,0,.31.14.37l.06.03s.08.03.12.03Z" fill="#fff" stroke-width="0"/>
    <path d="M10.86,18.12l.04.06c.05.07.12.11.19.11.06,0,.12-.02.18-.06.13-.09.14-.29.06-.42-.08-.13-.26-.17-.39-.08-.13.08-.17.26-.08.39Z" fill="#fff" stroke-width="0"/>
    <path d="M10.49,6.75l-.04.06c-.08.14-.03.31.11.38.04.02.09.04.14.04.1,0,.19-.05.25-.14l.04-.06c.08-.14.03-.31-.11-.38-.13-.08-.31-.03-.38.11Z" fill="#fff" stroke-width="0"/>
    <path d="M10.03,8.39c-.15-.05-.31.03-.36.17l-.02.07c-.05.15.03.31.17.36.03.01.06.02.09.02.12,0,.23-.07.27-.19l.02-.07c.05-.15-.03-.31-.17-.36Z" fill="#fff" stroke-width="0"/>
    <path d="M2.88,18.77h-12.18v6.37H2.88v-6.37ZM2.32,19.33v2.34h-11.06v-2.34H2.32ZM-8.74,24.58v-2.34H2.32v2.34h-11.06Z" fill="#fff" stroke-width="0"/>
    <path d="M49.36,18.77h-12.18v6.37h12.18v-6.37ZM48.8,19.33v2.34h-11.06v-2.34h11.06ZM37.74,24.58v-2.34h11.06v2.34h-11.06Z" fill="#fff" stroke-width="0"/>
  </g>
</svg>