<?xml version="1.0" encoding="UTF-8"?>
<svg id="Layer_1" data-name="Layer 1" xmlns="http://www.w3.org/2000/svg" width="14mm" height="14mm" viewBox="0 0 39.69 39.69">
  <rect x="-151.17" y="-131.35" width="288" height="288" stroke-width="0"/>
  <g>
    <path d="M7.27-42.54V35.01h22.08v43.88c0,.22.26,22.36,22.36,22.36h21.8v32.84h.56v-33.4h-22.36c-21.54,0-21.8-21.58-21.8-21.8v-14.44h8.26c3.12,0,5.75-1.02,7.6-2.96,1.64-1.72,2.54-4.04,2.54-6.52,0-4.57-3.17-9.48-10.14-9.48h-8.26v-11.04H7.83V-36.62c4.58,3.99,11.29,5.99,18.01,5.99s13.58-2.04,18.16-6.11l.24-.21-.24-.21c-9.12-8.1-26.96-8.14-36.17-.12v-5.27c0-19.95,8.92-37.85,22.96-49.96,0,.07.03.14.08.18.06.06.13.09.21.09.07,0,.13-.02.19-.07.12-.1.13-.28.02-.4l-.05-.06s-.07-.03-.11-.04c11.51-9.79,26.4-15.71,42.66-15.71h22.08v-.56h-22.08c-36.68,0-66.52,29.84-66.52,66.52ZM38.17,63.89h-8.26v-8.64h17.83c-.13,4.21-3.13,8.64-9.56,8.64ZM38.17,46.05c6.44,0,9.44,4.42,9.56,8.64h-17.83v-8.64h8.26ZM26.92-42.57c3.05.45,5.38,2.8,5.38,5.62s-2.33,5.17-5.39,5.62c-.72.02-1.43.02-2.15,0-3.05-.45-5.39-2.8-5.39-5.62s2.33-5.17,5.38-5.62c.72-.02,1.43-.02,2.15,0ZM29.27-31.48c2.14-1.08,3.6-3.12,3.6-5.47s-1.45-4.39-3.59-5.47c5.37.54,10.48,2.35,14.12,5.47-3.64,3.12-8.75,4.93-14.12,5.47ZM22.41-42.42c-2.14,1.08-3.6,3.12-3.6,5.47s1.45,4.39,3.6,5.47c-5.37-.54-10.48-2.35-14.12-5.47,3.64-3.12,8.75-4.92,14.12-5.47Z" fill="#fff" stroke-width="0"/>
    <path d="M2.58,23.41h-.07c-.16,0-.28.13-.28.28s.13.28.28.28h.07c.16,0,.28-.13.28-.28s-.13-.28-.28-.28Z" fill="#fff" stroke-width="0"/>
    <path d="M.63,23.41h-.07c-.16,0-.28.13-.28.28s.13.28.28.28h.07c.16,0,.28-.13.28-.28s-.13-.28-.28-.28Z" fill="#fff" stroke-width="0"/>
    <path d="M4.52,23.41h-.07c-.16,0-.28.13-.28.28s.13.28.28.28h.07c.16,0,.28-.13.28-.28s-.13-.28-.28-.28Z" fill="#fff" stroke-width="0"/>
    <path d="M6.47,23.41h-.07c-.16,0-.28.13-.28.28s.13.28.28.28h.07c.16,0,.28-.13.28-.28s-.13-.28-.28-.28Z" fill="#fff" stroke-width="0"/>
    <path d="M4.58,8.92h-.07c-.16,0-.28.13-.28.28s.13.28.28.28h.07c.16,0,.28-.13.28-.28s-.13-.28-.28-.28Z" fill="#fff" stroke-width="0"/>
    <path d="M2.64,8.92h-.07c-.16,0-.28.13-.28.28s.13.28.28.28h.07c.16,0,.28-.13.28-.28s-.13-.28-.28-.28Z" fill="#fff" stroke-width="0"/>
    <path d="M6.52,8.92h-.07c-.16,0-.28.13-.28.28s.13.28.28.28h.07c.16,0,.28-.13.28-.28s-.13-.28-.28-.28Z" fill="#fff" stroke-width="0"/>
    <path d="M.69,8.92h-.07c-.16,0-.28.13-.28.28s.13.28.28.28h.07c.16,0,.28-.13.28-.28s-.13-.28-.28-.28Z" fill="#fff" stroke-width="0"/>
    <path d="M4.53,16.17h-.07c-.16,0-.28.13-.28.28s.13.28.28.28h.07c.16,0,.28-.13.28-.28s-.13-.28-.28-.28Z" fill="#fff" stroke-width="0"/>
    <path d="M6.47,16.17h-.07c-.16,0-.28.13-.28.28s.13.28.28.28h.07c.16,0,.28-.13.28-.28s-.13-.28-.28-.28Z" fill="#fff" stroke-width="0"/>
    <path d="M.64,16.17h-.07c-.16,0-.28.13-.28.28s.13.28.28.28h.07c.16,0,.28-.13.28-.28s-.13-.28-.28-.28Z" fill="#fff" stroke-width="0"/>
    <path d="M2.59,16.17h-.07c-.16,0-.28.13-.28.28s.13.28.28.28h.07c.16,0,.28-.13.28-.28s-.13-.28-.28-.28Z" fill="#fff" stroke-width="0"/>
  </g>
</svg>